<svg
                width="16"
                height="16"
                viewBox="0 0 16 16"
                fill="none"
                xmlns="http://www.w3.org/2000/svg"
              >
                <g clip-path="url(#clip0_925_4)">
                  <path
                    fill-rule="evenodd"
                    clip-rule="evenodd"
                    d="M2.40039 4.26686C2.40039 3.98396 2.49672 3.71265 2.66818 3.51261C2.83964 3.31258 3.07219 3.2002 3.31468 3.2002H14.2861C14.5286 3.2002 14.7611 3.31258 14.9326 3.51261C15.1041 3.71265 15.2004 3.98396 15.2004 4.26686C15.2004 4.54976 15.1041 4.82107 14.9326 5.02111C14.7611 5.22115 14.5286 5.33353 14.2861 5.33353H3.31468C3.07219 5.33353 2.83964 5.22115 2.66818 5.02111C2.49672 4.82107 2.40039 4.54976 2.40039 4.26686ZM2.40039 9.6002C2.40039 9.3173 2.49672 9.04599 2.66818 8.84595C2.83964 8.64591 3.07219 8.53353 3.31468 8.53353H14.2861C14.5286 8.53353 14.7611 8.64591 14.9326 8.84595C15.1041 9.04599 15.2004 9.3173 15.2004 9.6002C15.2004 9.88309 15.1041 10.1544 14.9326 10.3544C14.7611 10.5545 14.5286 10.6669 14.2861 10.6669H3.31468C3.07219 10.6669 2.83964 10.5545 2.66818 10.3544C2.49672 10.1544 2.40039 9.88309 2.40039 9.6002ZM2.40039 14.9335C2.40039 14.6506 2.49672 14.3793 2.66818 14.1793C2.83964 13.9792 3.07219 13.8669 3.31468 13.8669H14.2861C14.5286 13.8669 14.7611 13.9792 14.9326 14.1793C15.1041 14.3793 15.2004 14.6506 15.2004 14.9335C15.2004 15.2164 15.1041 15.4877 14.9326 15.6878C14.7611 15.8878 14.5286 16.0002 14.2861 16.0002H3.31468C3.07219 16.0002 2.83964 15.8878 2.66818 15.6878C2.49672 15.4877 2.40039 15.2164 2.40039 14.9335Z"
                    fill="white"
                  />
                </g>
                <defs>
                  <clipPath id="clip0_925_4">
                    <rect width="16" height="16" fill="white" />
                  </clipPath>
                </defs>
              </svg>