<svg
              width="11"
              height="12"
              viewBox="0 0 11 12"
              fill="none"
              xmlns="http://www.w3.org/2000/svg"
            >
              <path
                d="M0.5 11.9999C0.367392 11.9999 0.240215 11.9472 0.146447 11.8535C0.0526785 11.7597 0 11.6325 0 11.4999V0.499915C1.48755e-05 0.413029 0.0226703 0.327647 0.0657334 0.252185C0.108797 0.176722 0.170781 0.113783 0.245577 0.0695716C0.320372 0.0253603 0.405398 0.00140242 0.492273 5.97212e-05C0.579148 -0.00128298 0.664873 0.0200358 0.741 0.0619146L10.741 5.56191C10.8194 5.60508 10.8848 5.66849 10.9303 5.74553C10.9758 5.82257 10.9998 5.91042 10.9998 5.99991C10.9998 6.08941 10.9758 6.17726 10.9303 6.2543C10.8848 6.33134 10.8194 6.39475 10.741 6.43791L0.741 11.9379C0.667175 11.9786 0.584275 11.9999 0.5 11.9999Z"
                fill="white"
              />
            </svg>