 <svg
                width="16"
                height="16"
                viewBox="0 0 16 16"
                fill="none"
                xmlns="http://www.w3.org/2000/svg"
              >
                <path
                  fill-rule="evenodd"
                  clip-rule="evenodd"
                  d="M13.9375 7.99986C13.9379 9.28851 13.4959 10.5382 12.6853 11.54C11.8747 12.5418 10.7448 13.2349 9.48438 13.5034C8.22401 13.7718 6.90967 13.5994 5.76119 13.0149C4.61272 12.4304 3.69975 11.4693 3.175 10.2924L1.43625 10.9986C2.12553 12.5779 3.33754 13.8718 4.86852 14.6627C6.3995 15.4535 8.15609 15.6932 9.84297 15.3413C11.5298 14.9894 13.0441 14.0675 14.1313 12.7305C15.2184 11.3936 15.8121 9.72305 15.8125 7.99986C15.8126 6.43453 15.3229 4.9084 14.412 3.63536C13.5012 2.36232 12.2148 1.40618 10.7333 0.900933C9.25173 0.395689 7.64922 0.366666 6.15034 0.817934C4.65146 1.2692 3.33135 2.17814 2.375 3.41736V1.12486H0.5V6.12486L1.4375 7.06236H5.8125V5.18736H3.44C4.05888 4.11445 5.01459 3.27581 6.15881 2.80157C7.30304 2.32734 8.5718 2.24403 9.76821 2.56457C10.9646 2.88512 12.0218 3.59159 12.7757 4.57436C13.5295 5.55714 13.9379 6.76125 13.9375 7.99986V7.99986Z"
                  fill="white"
                />
              </svg>